<svg id="Layer_1" data-name="Layer 1" xmlns="http://www.w3.org/2000/svg" width="279.09" height="40.97" viewBox="0 0 279.09 40.97"><defs><style>.cls-1{fill:#fff;}</style></defs><path class="cls-1" d="M279,39.69c.37,1.36-.5,1.28-1.43,1.28Q138.77,40.94,0,41V.06H12.46c-1.66.33-3.36.53-5,1-2.37.69-4.62,1.69-5.95,4A11.4,11.4,0,0,0,5.94,20.35q4.67,2.43,9.34,4.82a5.47,5.47,0,0,1,3,6.75,2.39,2.39,0,0,1-2.77,2c-1.51-.09-2-1-2-2.34,0-1.88,0-3.76,0-5.67H.66c.1,1.65.21,3.18.28,4.7.21,4.49,1.93,6.92,6.17,8.44a27.46,27.46,0,0,0,16.65.56c6.94-1.85,7.55-4.71,7.68-9.46.14-5.08-1.23-9.24-6.35-11.52-3.24-1.44-6.36-3.17-9.51-4.82a4.51,4.51,0,0,1-2.26-5.5A2.27,2.27,0,0,1,16,6.78c1.31.13,1.6,1,1.61,2.14s0,2.49,0,3.69h12.6c0-1.24,0-2.35,0-3.46,0-4.07-1.45-6.21-5.32-7.48C22.7,1,20.43.59,18.22.06q129.68,0,259.35,0c.61,0,1.69-.48,1.43.93H267.57V17.24l-.41,0c-1.73-4-3.76-7.83-5.08-11.93C260.91,1.66,258.9.39,255.17.92a45.84,45.84,0,0,1-6.42,0V39.61H260.1V23.47a3.53,3.53,0,0,1,1,1.46q2.67,6.69,5.32,13.39c.33.83.65,1.46,1.77,1.43C271.77,39.68,275.39,39.7,279,39.69ZM198.34,1.06V39.59h23.28V30.51h-11V24.13h11V15.32h-11V10h11V1.06Zm-26.68,0H149V39.6h12.26V25.39H171.6V15.93H161.31V10.74h10.35ZM124.44,39.64V28.52H111.6V1.1h-12V39.64Zm-65.7,0H71.47V1.08H58.74Z"/></svg>