<svg id="Layer_1" data-name="Layer 1" xmlns="http://www.w3.org/2000/svg" width="22.89" height="20.13" viewBox="0 0 22.89 20.13"><defs><style>.cls-1{fill:#fff;}</style></defs><g id="LMFctH.tif"><path class="cls-1" d="M9.72,16.1H8.27a2,2,0,0,1-1.82-2.88,1.44,1.44,0,0,0,.1-1.13Q5,6.83,3.53,1.55c0-.07,0-.13-.07-.21H2.17c-.49,0-1,0-1.46,0A.67.67,0,1,1,.71,0h3.2a.7.7,0,0,1,.74.58c.2.69.39,1.38.6,2.1h.28c5.51,0,11,0,16.55,0a.75.75,0,0,1,.76,1c-.89,3-1.74,6.07-2.61,9.11a.7.7,0,0,1-.8.61H8.24c-.42,0-.53.09-.63.49a.67.67,0,0,0,.62.85H19.48a.67.67,0,0,1,.68.93.65.65,0,0,1-.65.41c-.75,0-1.51,0-2.27,0a2.1,2.1,0,0,1,1.31.9,2,2,0,0,1,.28,1.54,2,2,0,0,1-4-.21,2.09,2.09,0,0,1,1.65-2.24h-6a2.18,2.18,0,0,1,1.3.92,2,2,0,0,1,.27,1.56,2,2,0,0,1-4-.28A2.08,2.08,0,0,1,9.72,16.1Zm9.32-4,2.3-8H5.64l2.29,8Zm-8.92,6.72a.69.69,0,0,0,.66-.68.67.67,0,0,0-1.34,0A.69.69,0,0,0,10.12,18.79Zm7.41-.67a.67.67,0,0,0-.66-.67.67.67,0,1,0,0,1.34A.68.68,0,0,0,17.53,18.12Z"/></g></svg>