<svg id="Layer_1" data-name="Layer 1" xmlns="http://www.w3.org/2000/svg" width="22.79" height="21.77" viewBox="0 0 22.79 21.77"><defs><style>.cls-1{fill:none;}.cls-2{fill:#fff;}</style></defs><g id="Z8K4tU.tif"><path class="cls-1" d="M11.27,4.29c-.06-.06-.11-.13-.16-.19a4.71,4.71,0,0,0-6.95-.7A5.19,5.19,0,0,0,2.45,6.85a5.94,5.94,0,0,0,1,4,14.79,14.79,0,0,0,2.67,3c1.44,1.27,2.9,2.52,4.36,3.77a1.05,1.05,0,0,0,1.56,0c1.45-1.25,2.91-2.5,4.34-3.76a15,15,0,0,0,2.7-3A5.92,5.92,0,0,0,20,6.21a5,5,0,0,0-2.25-3.29A4.64,4.64,0,0,0,12,3.51C11.73,3.76,11.51,4,11.27,4.29Z"/><path class="cls-2" d="M11.27,4.29c.24-.26.46-.53.71-.78a4.64,4.64,0,0,1,5.78-.59A5,5,0,0,1,20,6.21a5.92,5.92,0,0,1-.91,4.66,15,15,0,0,1-2.7,3c-1.43,1.26-2.89,2.51-4.34,3.76a1.05,1.05,0,0,1-1.56,0C9,16.37,7.58,15.12,6.14,13.85a14.79,14.79,0,0,1-2.67-3,5.94,5.94,0,0,1-1-4A5.19,5.19,0,0,1,4.16,3.4a4.71,4.71,0,0,1,7,.7C11.16,4.16,11.21,4.23,11.27,4.29Zm0,12.63a.81.81,0,0,0,.13-.11c1.4-1.21,2.81-2.4,4.19-3.63a14.61,14.61,0,0,0,2.61-2.83A4.92,4.92,0,0,0,19,6.5a3.92,3.92,0,0,0-3.21-3.23,3.38,3.38,0,0,0-2.58.58,4.84,4.84,0,0,0-1.32,1.42.67.67,0,0,1-1.23,0c-.12-.19-.25-.37-.39-.55a3.69,3.69,0,0,0-6.19.4,4.71,4.71,0,0,0,0,4.77,9.19,9.19,0,0,0,1.82,2.29c1,.93,2,1.83,3,2.73C9.7,15.58,10.48,16.24,11.27,16.92Z"/></g></svg>