<svg id="Layer_1" data-name="Layer 1" xmlns="http://www.w3.org/2000/svg" width="18.45" height="17.34" viewBox="0 0 18.45 17.34"><defs><style>.cls-1{fill:#fff;}.cls-2{fill:none;}</style></defs><path class="cls-1" d="M13.1,12.79c-.47.29-.9.58-1.37.82A7.07,7.07,0,0,1,8,14.34a6.92,6.92,0,0,1-3.46-1.2,7,7,0,0,1-3-4.4A6.93,6.93,0,0,1,2.86,2.8,7,7,0,0,1,7.36.11a6.91,6.91,0,0,1,4.53.72,7,7,0,0,1,3.71,5A7,7,0,0,1,14,11.86l-.08.09-.07.09a.56.56,0,0,1,.17.09l4.21,4.2a.56.56,0,0,1,.09.83.55.55,0,0,1-.83,0l-1.59-1.58-2.7-2.69A.75.75,0,0,0,13.1,12.79ZM8.41,1.11l-.76.08a5.88,5.88,0,0,0-3.8,2.14A5.91,5.91,0,0,0,2.52,8a5.72,5.72,0,0,0,1.73,3.49,5.92,5.92,0,0,0,5.18,1.71,5.75,5.75,0,0,0,3.42-1.71A5.89,5.89,0,0,0,14.57,6.4a5.79,5.79,0,0,0-1.73-3.51A6.07,6.07,0,0,0,8.41,1.11Z"/><path class="cls-2" d="M8.41,1.11a6.07,6.07,0,0,1,4.43,1.78A5.79,5.79,0,0,1,14.57,6.4a5.89,5.89,0,0,1-1.72,5.07,5.75,5.75,0,0,1-3.42,1.71,5.92,5.92,0,0,1-5.18-1.71A5.72,5.72,0,0,1,2.52,8,5.91,5.91,0,0,1,3.85,3.33a5.88,5.88,0,0,1,3.8-2.14Z"/></svg>