<svg id="Layer_1" data-name="Layer 1" xmlns="http://www.w3.org/2000/svg" width="279.09" height="40.97" viewBox="0 0 279.09 40.97"><defs><style>.cls-1{fill:#fff;}</style></defs><path class="cls-1" d="M279,39.89c-3.62,0-7.23,0-10.85.07-1.12,0-1.44-.61-1.77-1.44q-2.64-6.71-5.32-13.38a3.47,3.47,0,0,0-1-1.46V39.82H248.72V1.18a45.84,45.84,0,0,0,6.42-.06c3.73-.52,5.74.75,6.91,4.42,1.32,4.09,3.35,8,5.08,11.92l.41,0V1.22H279Z"/><path class="cls-1" d="M18.19.18c2.21.53,4.48.9,6.63,1.61,3.87,1.27,5.29,3.41,5.32,7.48,0,1.11,0,2.22,0,3.46H17.54c0-1.2,0-2.45,0-3.69s-.3-2-1.61-2.14a2.27,2.27,0,0,0-2.63,1.56A4.51,4.51,0,0,0,15.55,14c3.15,1.65,6.27,3.37,9.51,4.82,5.12,2.28,6.49,6.44,6.35,11.52-.13,4.75-.74,7.61-7.68,9.46A27.53,27.53,0,0,1,7.08,39.2c-4.24-1.52-6-4-6.17-8.44-.07-1.52-.18-3.05-.28-4.7H13.51c0,1.9,0,3.79,0,5.67,0,1.32.49,2.25,2,2.34a2.39,2.39,0,0,0,2.77-2,5.46,5.46,0,0,0-3-6.75q-4.66-2.4-9.34-4.82A11.41,11.41,0,0,1,1.5,5.14c1.33-2.27,3.58-3.27,6-4,1.62-.47,3.32-.67,5-1Z"/><path class="cls-1" d="M198.31,1.22h23.25v9H210.61v5.31h11v8.81h-11v6.38h11v9.08H198.31Z"/><path class="cls-1" d="M171.63,1.22v9.66H161.28v5.19h10.29v9.46H161.21V39.74H149V1.22Z"/><path class="cls-1" d="M124.41,39.76H99.53V1.21h12V28.64h12.84Z"/><path class="cls-1" d="M58.71,39.77V1.2H71.44V39.77Z"/></svg>